<svg xmlns="http://www.w3.org/2000/svg" width="300" height="42" viewBox="0 0 300 42" fill="none"><g clip-path="url(#clip0_1449_23202)"><path d="M68.5381 42C65.7374 42 63.4656 39.7437 63.4656 36.9622V5.03775C63.4656 2.25625 65.7374 0 68.5381 0C71.3387 0 73.6105 2.25625 73.6105 5.03775V36.9655C73.6105 39.7471 71.3387 42.0033 68.5381 42.0033" fill="#233755"></path><path d="M113.718 32.0435H97.253V32.0137H93.8735C92.6162 32.0137 91.5951 30.9996 91.5951 29.7509V12.2955C91.5951 11.0468 92.6162 10.0326 93.8735 10.0326H134.357C133.292 4.48944 128.386 0.297363 122.492 0.297363H93.8735C87.2012 0.297363 81.7927 5.66877 81.7927 12.2955V29.7509C81.7927 36.3776 87.2012 41.749 93.8735 41.749H109.4L113.714 32.0435H113.718Z" fill="#233755"></path><path d="M46.2321 16.7981L32.5348 16.7122C29.9802 16.7122 27.9113 18.7669 27.9113 21.304C27.9113 23.841 29.9802 25.8958 32.5348 25.8958H43.3317C44.4859 25.8958 45.4338 26.7811 45.527 27.9043V29.7509C45.527 31.0029 44.5058 32.0137 43.2485 32.0137H12.5808C11.3235 32.0137 10.3024 30.9996 10.3024 29.7509V12.2955C10.3024 11.0435 11.3235 10.0326 12.5808 10.0326H30.2397L34.5671 0.297363H12.5808C5.90842 0.297363 0.5 5.66877 0.5 12.2955V29.7509C0.5 36.3776 5.90842 41.749 12.5808 41.749H43.2485C49.9209 41.749 55.3293 36.3776 55.3293 29.7509V25.8892C55.3293 20.891 51.268 16.8311 46.2354 16.7981" fill="#233755"></path><path d="M180.445 0.812744H178.509V9.55696H180.445V0.812744Z" fill="#233755"></path><path d="M182.833 0.812744H184.619L188.744 6.19736V0.812744H190.656V9.55696H189.006L184.746 3.99726V9.55696H182.833V0.812744Z" fill="#233755"></path><path d="M192.955 0.812744H199.657V2.56027H194.89V4.42341H199.091V6.17093H194.89V9.55696H192.955V0.812744Z" fill="#233755"></path><path d="M201.39 0.812744H205.415C206.533 0.812744 207.401 1.12327 207.98 1.69807C208.469 2.18698 208.735 2.87079 208.735 3.69665V3.72308C208.735 5.13365 207.966 6.02228 206.849 6.4319L209.001 9.55366H206.739L204.853 6.75564H203.333V9.55366H201.397V0.812744H201.39ZM205.289 5.05767C206.233 5.05767 206.772 4.55885 206.772 3.82218V3.79575C206.772 2.9732 206.193 2.54705 205.252 2.54705H203.33V5.05767H205.292H205.289Z" fill="#233755"></path><path d="M213.687 0.75H215.473L219.245 9.55368H217.22L216.415 7.59143H212.693L211.888 9.55368H209.912L213.684 0.75H213.687ZM215.723 5.89677L214.552 3.06241L213.381 5.89677H215.719H215.723Z" fill="#233755"></path><path d="M220.06 8.28163L221.204 6.92061C221.996 7.57139 222.827 7.98102 223.832 7.98102C224.624 7.98102 225.103 7.66719 225.103 7.15846V7.13203C225.103 6.64643 224.8 6.39536 223.33 6.02208C221.557 5.57281 220.413 5.0839 220.413 3.34959V3.32316C220.413 1.73751 221.693 0.687012 223.493 0.687012C224.777 0.687012 225.871 1.08673 226.762 1.79697L225.758 3.24718C224.98 2.70872 224.211 2.38498 223.469 2.38498C222.728 2.38498 222.339 2.72193 222.339 3.14808V3.17451C222.339 3.74931 222.718 3.9376 224.238 4.3241C226.024 4.78659 227.028 5.42415 227.028 6.94704V6.97016C227.028 8.70778 225.695 9.67899 223.795 9.67899C222.462 9.67899 221.118 9.21651 220.06 8.27833" fill="#233755"></path><path d="M230.764 2.58669H228.083V0.812744H235.378V2.58669H232.7V9.55696H230.764V2.58669Z" fill="#233755"></path><path d="M237.05 0.812744H241.075C242.193 0.812744 243.061 1.12327 243.64 1.69807C244.128 2.18698 244.395 2.87079 244.395 3.69665V3.72308C244.395 5.13365 243.626 6.02228 242.509 6.4319L244.657 9.55366H242.396L240.51 6.75564H238.986V9.55366H237.05V0.812744ZM240.949 5.05767C241.893 5.05767 242.432 4.55885 242.432 3.82218V3.79575C242.432 2.9732 241.853 2.54705 240.909 2.54705H238.986V5.05767H240.949Z" fill="#233755"></path><path d="M246.191 5.80755V0.812744H248.127V5.758C248.127 7.18179 248.842 7.91845 250.026 7.91845C251.21 7.91845 251.925 7.20491 251.925 5.82077V0.812744H253.861V5.74479C253.861 8.39415 252.365 9.6924 250 9.6924C247.635 9.6924 246.188 8.38094 246.188 5.80755" fill="#233755"></path><path d="M255.631 5.20949V5.18306C255.631 2.69887 257.517 0.660645 260.221 0.660645C261.881 0.660645 262.875 1.20902 263.69 2.00845L262.46 3.41902C261.781 2.80788 261.089 2.43129 260.208 2.43129C258.724 2.43129 257.657 3.65687 257.657 5.15333V5.17976C257.657 6.67952 258.701 7.92822 260.208 7.92822C261.212 7.92822 261.831 7.52851 262.523 6.90415L263.753 8.13964C262.849 9.10095 261.841 9.70217 260.145 9.70217C257.553 9.70217 255.631 7.7168 255.631 5.20618" fill="#233755"></path><path d="M267.539 2.58669H264.861V0.812744H272.156V2.58669H269.475V9.55696H267.539V2.58669Z" fill="#233755"></path><path d="M273.685 5.80755V0.812744H275.621V5.758C275.621 7.18179 276.34 7.91845 277.521 7.91845C278.701 7.91845 279.42 7.20491 279.42 5.82077V0.812744H281.356V5.74479C281.356 8.39415 279.859 9.6924 277.494 9.6924C275.129 9.6924 273.682 8.38094 273.682 5.80755" fill="#233755"></path><path d="M283.517 0.812744H287.542C288.66 0.812744 289.528 1.12327 290.107 1.69807C290.596 2.18698 290.862 2.87079 290.862 3.69665V3.72308C290.862 5.13365 290.093 6.02228 288.976 6.4319L291.128 9.55366H288.863L286.977 6.75564H285.457V9.55366H283.521V0.812744H283.517ZM287.416 5.05767C288.357 5.05767 288.899 4.55885 288.899 3.82218V3.79575C288.899 2.9732 288.32 2.54705 287.379 2.54705H285.453V5.05767H287.416Z" fill="#233755"></path><path d="M292.798 0.812744H299.437V2.52393H294.72V4.29788H298.871V6.00906H294.72V7.84578H299.5V9.55696H292.798V0.812744Z" fill="#233755"></path><path d="M145.317 20.9671V20.9406C145.317 18.4564 147.203 16.4182 149.907 16.4182C151.567 16.4182 152.561 16.9666 153.376 17.766L152.142 19.1766C151.464 18.5655 150.772 18.1889 149.89 18.1889C148.407 18.1889 147.339 19.4144 147.339 20.9109V20.9373C147.339 22.4371 148.384 23.6858 149.89 23.6858C150.895 23.6858 151.514 23.2861 152.205 22.6617L153.439 23.8972C152.535 24.8585 151.527 25.4597 149.831 25.4597C147.239 25.4597 145.317 23.4744 145.317 20.9638" fill="#233755"></path><path d="M154.53 20.9671V20.9406C154.53 18.4564 156.506 16.4182 159.22 16.4182C161.934 16.4182 163.887 18.43 163.887 20.9142V20.9406C163.887 23.4248 161.911 25.463 159.197 25.463C156.483 25.463 154.53 23.4512 154.53 20.9671ZM161.861 20.9671V20.9406C161.861 19.4409 160.754 18.1922 159.194 18.1922C157.634 18.1922 156.553 19.4177 156.553 20.9142V20.9406C156.553 22.4404 157.66 23.6891 159.217 23.6891C160.774 23.6891 161.858 22.4635 161.858 20.9671" fill="#233755"></path><path d="M165.796 16.5701H169.821C170.938 16.5701 171.806 16.8806 172.385 17.4554C172.874 17.9443 173.14 18.6281 173.14 19.454V19.4804C173.14 20.891 172.372 21.7796 171.254 22.1892L173.403 25.311H171.141L169.255 22.513H167.735V25.311H165.799V16.5701H165.796ZM169.694 20.815C170.639 20.815 171.178 20.3162 171.178 19.5795V19.5531C171.178 18.7305 170.599 18.3044 169.654 18.3044H167.732V20.815H169.694Z" fill="#233755"></path><path d="M175.076 16.5701H178.672C180.771 16.5701 182.041 17.8056 182.041 19.5927V19.6191C182.041 21.6409 180.458 22.6914 178.482 22.6914H177.012V25.3143H175.076V16.5734V16.5701ZM178.549 20.9802C179.517 20.9802 180.082 20.4054 180.082 19.6555V19.6324C180.082 18.7702 179.477 18.3077 178.509 18.3077H177.012V20.9802H178.545H178.549Z" fill="#233755"></path><path d="M183.272 20.9671V20.9406C183.272 18.4564 185.245 16.4182 187.962 16.4182C190.68 16.4182 192.629 18.43 192.629 20.9142V20.9406C192.629 23.4248 190.653 25.463 187.939 25.463C185.225 25.463 183.276 23.4512 183.276 20.9671M190.607 20.9671V20.9406C190.607 19.4409 189.499 18.1922 187.939 18.1922C186.379 18.1922 185.298 19.4177 185.298 20.9142V20.9406C185.298 22.4404 186.406 23.6891 187.966 23.6891C189.525 23.6891 190.607 22.4635 190.607 20.9671Z" fill="#233755"></path><path d="M194.538 16.5701H198.563C199.68 16.5701 200.548 16.8806 201.127 17.4554C201.616 17.9443 201.882 18.6281 201.882 19.454V19.4804C201.882 20.891 201.114 21.7796 199.996 22.1892L202.148 25.311H199.886L198 22.513H196.48V25.311H194.545V16.5701H194.538ZM198.436 20.815C199.381 20.815 199.92 20.3162 199.92 19.5795V19.5531C199.92 18.7305 199.341 18.3044 198.4 18.3044H196.477V20.815H198.44H198.436Z" fill="#233755"></path><path d="M206.835 16.5073H208.621L212.393 25.311H210.368L209.563 23.3521H205.841L205.036 25.311H203.06L206.832 16.5073H206.835ZM208.871 21.6541L207.7 18.8197L206.529 21.6541H208.867H208.871Z" fill="#233755"></path><path d="M214.855 18.344H212.177V16.5701H219.472V18.344H216.791V25.3143H214.855V18.344Z" fill="#233755"></path><path d="M223.167 16.5701H221.231V25.311H223.167V16.5701Z" fill="#233755"></path><path d="M225.166 20.9671V20.9406C225.166 18.4564 227.142 16.4182 229.856 16.4182C232.57 16.4182 234.523 18.43 234.523 20.9142V20.9406C234.523 23.4248 232.547 25.463 229.833 25.463C227.119 25.463 225.166 23.4512 225.166 20.9671ZM232.497 20.9671V20.9406C232.497 19.4409 231.39 18.1922 229.83 18.1922C228.27 18.1922 227.189 19.4177 227.189 20.9142V20.9406C227.189 22.4404 228.296 23.6891 229.856 23.6891C231.416 23.6891 232.497 22.4635 232.497 20.9671Z" fill="#233755"></path><path d="M236.431 16.5701H238.214L242.342 21.9547V16.5701H244.251V25.3143H242.605L238.34 19.7546V25.3143H236.431V16.5701Z" fill="#233755"></path><path d="M36.4797 10.0326H55.1132C54.0455 4.48613 49.1393 0.297363 43.2486 0.297363H40.8071L36.4797 10.0293V10.0326Z" fill="#7F8083"></path><path d="M115.344 41.7456H122.339C128.22 41.7456 133.119 37.57 134.197 32.04H119.658L115.344 41.7456Z" fill="#7F8083"></path><path d="M145.316 5.20949V5.18306C145.316 2.69887 147.265 0.660645 149.93 0.660645C151.513 0.660645 152.471 1.08349 153.389 1.85979L152.168 3.31992C151.49 2.75833 150.884 2.43459 149.867 2.43459C148.456 2.43459 147.339 3.67008 147.339 5.15663V5.18306C147.339 6.78193 148.446 7.95465 150.003 7.95465C150.708 7.95465 151.337 7.77957 151.826 7.4294V6.1807H149.877V4.51907H153.698V8.31473C152.794 9.07782 151.55 9.70217 149.94 9.70217C147.199 9.70217 145.313 7.79278 145.313 5.20618" fill="#7F8083"></path><path d="M158.767 0.75H160.554L164.326 9.55368H162.3L161.495 7.59143H157.773L156.968 9.55368H154.992L158.764 0.75H158.767ZM160.803 5.89677L159.632 3.06241L158.461 5.89677H160.8H160.803Z" fill="#7F8083"></path><path d="M165.873 0.812744H169.468C171.567 0.812744 172.838 2.04823 172.838 3.8354V3.86182C172.838 5.88353 171.254 6.93403 169.279 6.93403H167.808V9.55696H165.873V0.812744ZM169.345 5.22284C170.313 5.22284 170.879 4.64804 170.879 3.89816V3.87504C170.879 3.01284 170.273 2.55036 169.305 2.55036H167.808V5.22284H169.342H169.345Z" fill="#7F8083"></path><path d="M145.214 36.2718V36.252C145.214 34.3591 146.641 32.8098 148.673 32.8098C149.907 32.8098 150.655 33.2393 151.297 33.8471L150.539 34.7126C150.003 34.2171 149.428 33.8834 148.663 33.8834C147.379 33.8834 146.451 34.9306 146.451 36.2322V36.252C146.451 37.5569 147.379 38.6206 148.663 38.6206C149.488 38.6206 150.013 38.2869 150.589 37.7551L151.347 38.5149C150.649 39.2383 149.88 39.6942 148.626 39.6942C146.67 39.6942 145.217 38.1812 145.217 36.2685" fill="#7F8083"></path><path d="M152.734 32.6381H153.892V35.3403C154.218 34.8646 154.687 34.455 155.472 34.455C156.613 34.455 157.271 35.2181 157.271 36.3875V39.5819H156.114V36.7277C156.114 35.9481 155.721 35.4989 155.033 35.4989C154.344 35.4989 153.892 35.9646 153.892 36.7443V39.5786H152.734V32.6348V32.6381Z" fill="#7F8083"></path><path d="M162.054 39.5853V38.9675C161.708 39.3771 161.182 39.691 160.417 39.691C159.459 39.691 158.618 39.1492 158.618 38.1416V38.1218C158.618 37.0086 159.489 36.4767 160.667 36.4767C161.279 36.4767 161.671 36.5626 162.064 36.6848V36.589C162.064 35.8953 161.621 35.5154 160.82 35.5154C160.254 35.5154 159.832 35.6376 159.373 35.8292L159.057 34.9076C159.612 34.6598 160.158 34.488 160.983 34.488C162.476 34.488 163.205 35.2676 163.205 36.6088V39.5853H162.054ZM162.084 37.4843C161.788 37.3719 161.375 37.2861 160.923 37.2861C160.195 37.2861 159.765 37.5801 159.765 38.0657V38.0855C159.765 38.5612 160.198 38.8288 160.743 38.8288C161.508 38.8288 162.084 38.3993 162.084 37.7717V37.4876V37.4843Z" fill="#7F8083"></path><path d="M164.872 34.5605H166.029V35.3402C166.355 34.8645 166.824 34.4548 167.609 34.4548C168.75 34.4548 169.409 35.2146 169.409 36.3873V39.5851H168.251V36.7309C168.251 35.9513 167.859 35.5053 167.17 35.5053C166.481 35.5053 166.029 35.9711 166.029 36.7507V39.5851H164.872V34.5605Z" fill="#7F8083"></path><path d="M171.088 40.5266L171.52 39.6611C172.056 39.9947 172.631 40.1929 173.32 40.1929C174.354 40.1929 174.92 39.6611 174.92 38.6502V38.2604C174.497 38.8022 173.972 39.1821 173.137 39.1821C171.95 39.1821 170.839 38.3066 170.839 36.8333V36.8135C170.839 35.3302 171.96 34.4548 173.137 34.4548C173.989 34.4548 174.92 34.8446 174.92 38.6502V38.2604C174.497 38.8022 173.972 39.1821 173.137 39.1821C171.95 39.1821 170.839 38.3066 170.839 36.8333V36.8135C170.839 35.3302 171.96 34.4548 173.137 34.4548C173.989 34.4548 174.517 34.8446 174.91 35.3104V34.5572H176.067V38.5544C176.067 39.4001 175.848 40.0277 174.927 36.8333V36.8135C174.927 35.9843 174.245 35.426 173.443 35.426C172.641 35.426 172.006 35.9777 172.006 36.8069V36.8267C172.006 37.6559 172.648 38.2175 173.443 38.2175C174.238 38.2175 174.927 37.646 174.927 36.8366" fill="#7F8083"></path><path d="M177.82 32.6975H179.064V33.7909H177.82V32.6975ZM177.867 34.564H179.024V39.5885H177.867V34.564Z" fill="#7F8083"></path><path d="M180.831 34.5605H181.988V35.3402C182.314 34.8645 182.783 34.4548 183.568 34.4548C184.709 34.4548 185.368 35.2146 185.368 36.3873V39.5851H184.21V36.7309C184.21 35.9513 183.818 35.5053 183.129 35.5053C182.441 35.5053 181.988 35.9711 181.988 36.7507V39.5851H180.831V34.5605Z" fill="#7F8083"></path><path d="M187.047 40.5266L187.477 39.6611C188.012 39.9947 188.587 40.1929 189.276 40.1929C190.31 40.1929 190.876 39.6611 190.876 38.6502V38.2604C190.454 38.8022 189.928 39.1821 189.093 39.1821C187.906 39.1821 186.795 38.3066 186.795 36.8333V36.8135C186.795 35.3302 187.916 34.4548 189.093 34.4548C189.945 34.4548 190.473 34.8446 190.866 35.3104V34.5572H192.027V38.5544C192.027 39.4001 191.807 40.0277 191.385 40.4473C190.926 40.9032 190.217 41.1212 189.306 41.1212C188.471 41.1212 187.696 40.9131 187.047 40.5233M190.889 36.8333V36.8135C190.889 35.9843 190.207 35.426 189.406 35.426C188.604 35.426 187.969 35.9777 187.969 36.8069V36.8267C187.969 37.6559 188.611 38.2175 189.406 38.2175C190.201 38.2175 190.889 37.646 190.889 36.8366" fill="#7F8083"></path><path d="M197.056 32.9253H198.237V38.518H201.763V39.585H197.056V32.9253Z" fill="#7F8083"></path><path d="M203.16 32.6975H204.404V33.7909H203.16V32.6975ZM203.21 34.564H204.367V39.5885H203.21V34.564Z" fill="#7F8083"></path><path d="M205.688 34.5608H206.935L208.295 38.2507L209.663 34.5608H210.88L208.811 39.6217H207.767L205.688 34.5608Z" fill="#7F8083"></path><path d="M211.588 37.091V37.0712C211.588 35.6342 212.612 34.4548 214.059 34.4548C215.669 34.4548 216.484 35.7101 216.484 37.1571C216.484 37.2628 216.474 37.3652 216.464 37.4808H212.749C212.875 38.3 213.457 38.7559 214.206 38.7559C214.771 38.7559 215.174 38.5478 215.576 38.158L216.255 38.7559C215.776 39.3274 215.114 39.6974 214.186 39.6974C212.719 39.6974 211.591 38.6403 211.591 37.091M215.337 36.721C215.26 35.9777 214.818 35.3996 214.053 35.3996C213.344 35.3996 212.845 35.9414 212.739 36.721H215.337Z" fill="#7F8083"></path><path d="M217.528 38.9279L218.044 38.1483C218.59 38.5579 219.185 38.766 219.701 38.766C220.216 38.766 220.485 38.5579 220.485 38.2243V38.2044C220.485 37.8146 219.95 37.6825 219.355 37.5008C218.606 37.2927 217.775 36.9855 217.775 36.0275V36.0077C217.775 35.0563 218.57 34.4749 219.574 34.4749C220.206 34.4749 220.895 34.6929 221.433 35.0463L220.974 35.8656C220.485 35.5716 219.97 35.3899 219.547 35.3899C219.098 35.3899 218.839 35.598 218.839 35.8953V35.9152C218.839 36.2752 219.385 36.4305 219.98 36.6188C220.718 36.8467 221.55 37.1804 221.55 38.0822V38.102C221.55 39.1591 220.725 39.6811 219.671 39.6811C218.952 39.6811 218.157 39.4234 217.525 38.9279" fill="#7F8083"></path></g><defs><clipPath id="clip0_1449_23202"><rect width="299" height="42" fill="white" transform="translate(0.5)"></rect></clipPath></defs></svg>
